<svg xmlns="http://www.w3.org/2000/svg" viewBox="0 0 512 512"><style type="text/css">
  .st0{fill: currentColor;}
</style><path class="st0" d="M488,170l-73.84,28.87V184.52a80.87,80.87,0,0,0-80.86-80.87H82A80.87,80.87,0,0,0,1.12,184.52V327.79A80.87,80.87,0,0,0,82,408.65H333.26a80.86,80.86,0,0,0,80.86-80.86V313.1L488,342a15.9,15.9,0,0,0,23.16-14.1V184.11A15.9,15.9,0,0,0,488,170Zm-210.18,91.2a10.17,10.17,0,0,1-3.66,3.71v0L151.49,337.44a10.09,10.09,0,0,1-9.84.27c-3.6-1.86-5.53-6-5.53-10.06V184.35c0-4.1,1.93-8.21,5.53-10.06a10.12,10.12,0,0,1,9.84.27l122.63,72.49A10.44,10.44,0,0,1,277.78,261.22ZM343,159.65h-58.5a10.68,10.68,0,0,1-10.64-8.73,10.51,10.51,0,0,1,10.35-12.27H343a10.5,10.5,0,0,1,0,21Z"/></svg>