<svg id="Layer_1" enable-background="new 0 0 512 512" height="512" viewBox="0 0 512 512" width="512" xmlns="http://www.w3.org/2000/svg"><path d="m256 31c-124.3 0-225 100.7-225 225s100.7 225 225 225 225-100.7 225-225-100.7-225-225-225zm-63.7 350h-59.8v-167.2h59.8zm-29.9-190.2c-16.5 0-29.9-13.4-29.9-29.9s13.4-29.9 29.9-29.9 29.9 13.4 29.9 29.9-13.4 29.9-29.9 29.9zm217.2 190.2h-49.3s.3-97.5.5-100.5c.3-3-2.7-27.6-27.9-27.6s-33.1 18-33.1 31.7v96.4h-46.7v-167.2h46.2v23.2s7.1-23.4 49.8-23.4c35.2 0 60.4 13.7 60.4 51.4.1 20.9.1 116 .1 116z"/></svg>