<svg id="Layer_1" enable-background="new 0 0 512 512" height="512" viewBox="0 0 512 512" width="512" xmlns="http://www.w3.org/2000/svg"><path d="m256 31c-124.3 0-225 100.7-225 225s100.7 225 225 225 225-100.7 225-225-100.7-225-225-225zm100.3 173.1s7.3 66.6-45.3 116.5c-73.7 69.9-180 15.5-180 15.5 51.1.6 72.7-20.9 72.7-20.9-42-7.2-46.2-37.2-46.2-37.2 7.2 4.5 22.9 0 22.9 0-46.8-21.5-39.5-49.8-39.5-49.8 13.6 7.6 23.8 4.8 23.8 4.8-36.4-31.6-15.8-65.1-15.8-65.1 63.9 60.8 105 48.3 105 48.3-2.9-42.8 22.4-59.4 49.7-60.3 23-.8 36.2 15.2 36.2 15.2 17.7 1.5 34.3-10.3 34.3-10.3-1.5 14.3-20.9 26.4-20.9 26.4 10.1.9 27.7-4.6 27.7-4.6-9.1 16.7-24.6 21.5-24.6 21.5z"/></svg>