<svg id="Layer_1" enable-background="new 0 0 512 512" height="512" viewBox="0 0 512 512" width="512" xmlns="http://www.w3.org/2000/svg"><g><path d="m294.5 278c-2.5.4-4.1 2.9-6.6 6.8-2.6 4.2-5.6 9-11.4 10.6-3.1.9-8.9.9-22.6-8.9-8.1-5.8-17.7-14.2-26.3-23-13.8-14.1-14-17.6-14-18.9-.3-5.8 4.3-10.6 8.4-14.8 2.5-2.5 5-5.1 5.8-7.3.3-1.6-1.8-8.8-7.5-19s-10.8-15.8-12.4-16.4c-.2-.1-.6-.1-1-.1-2.9 0-10 1.7-16.2 7.4-6.4 6-12.8 17.6-6.9 38.6 10.9 39.1 45.2 70.7 96.6 88.8 13.6 4.8 24.8 4.8 33.1-.2 11.6-7 15.1-21.7 16-27.7.1-.5-.1-1-.4-1.4-6.9-7.2-28.3-15.6-34.6-14.5z"/><path d="m256 31c-124.3 0-225 100.7-225 225s100.7 225 225 225 225-100.7 225-225-100.7-225-225-225zm0 350c-26.5 0-51.8-8.2-73.2-23.7l-1.7-1.2-39.9 15.7 14.1-41.8-1.1-1.6c-15.2-21.3-23.2-46.3-23.2-72.4 0-68.9 56.1-125 125-125s125 56.1 125 125-56.1 125-125 125z"/></g></svg>